<svg width="375" height="375" viewBox="0 0 375 375" fill="none" xmlns="http://www.w3.org/2000/svg" >
<path d="M369.422 77.1406C356.375 82.9218 342.359 86.8281 327.625 88.5937C342.656 79.5937 354.187 65.3125 359.625 48.3124C345.562 56.6562 329.984 62.7187 313.406 65.9687C300.125 51.8437 281.219 42.9999 260.281 42.9999C220.094 42.9999 187.5 75.5937 187.5 115.812C187.5 121.5 188.156 127.031 189.375 132.375C128.859 129.328 75.25 100.344 39.3437 56.3124C33.0937 67.0937 29.5 79.5937 29.5 92.9062C29.5 118.156 42.3593 140.453 61.875 153.5C49.9375 153.109 38.7187 149.844 28.9062 144.391V145.328C28.9062 180.594 53.9843 210.016 87.2968 216.703C81.1718 218.359 74.75 219.234 68.125 219.234C63.4375 219.234 58.8593 218.797 54.4218 217.953C63.6875 246.859 90.5625 267.922 122.422 268.484C97.5 288.016 66.1093 299.656 32.0156 299.656C26.1406 299.656 20.3437 299.313 14.6406 298.641C46.8593 319.313 85.1093 331.344 126.203 331.344C260.109 331.344 333.312 220.437 333.312 124.25C333.312 121.125 333.234 117.969 333.094 114.844C347.312 104.562 359.656 91.7656 369.391 77.1875L369.422 77.1406Z" fill="currentColor"/>
</svg>
